# xmcd
# 
# Track frame offsets:
#     150
#     5614
#     10522
#     16879
#     22041
#     33581
#     37612
#     47049
#     53770
#     58590
#     64724
#     77495
#     87758
#     96174
#     100234
#     108137
#     112220
#     125320
#     132548
#     138767
#     145888
#     153602
#     161967
#     170431
#     178537
#     182747
#     189434
#     193921
#     200649
#     206971
# 
# Disc length: 2821
# 
# Revision: 2
# Processed by: cddbd v1.5.2PL0 Copyright (c) Steve Scherf et al.
# Submitted via: BonkEnc v1.0.8
# 
DISCID=9d0b031e
DTITLE=Tluce bubenicek - Zpívánky
DYEAR=2002
DGENRE=Ethnic
TTITLE0=Na tom prazskem moste
TTITLE1=A ja sam
TTITLE2=Zezulicko kdy jsi byla
TTITLE3=A ja porad kdo to je
TTITLE4=Kdyz jsem ja slouzil
TTITLE5=Uz je to udelano
TTITLE6=Ja jsem muzikant
TTITLE7=Na tom nasem dvore
TTITLE8=Utikej kaco utikej
TTITLE9=Malicka su
TTITLE10=Okolo hradce
TTITLE11=Plavala husicka
TTITLE12=Na ty louce zeleny
TTITLE13=Cib cib cibulenka
TTITLE14=Ja jsem maly myslivecek
TTITLE15=Kdyz jsem husy pasala
TTITLE16=Sly panenky silnici
TTITLE17=Co to tam supoce
TTITLE18=Pod nasim okynkem
TTITLE19=Letela husicka
TTITLE20=Andulko safarova
TTITLE21=Cervena ruzicko
TTITLE22=Tovacov Tovacov
TTITLE23=Marjanko Marjanko
TTITLE24=Sel zahradnik
TTITLE25=Chovejte mne ma maticko
TTITLE26=Sla nanynka do zeli
TTITLE27=Bude zima bude mraz
TTITLE28=Koulelo se koulelo
TTITLE29=Tluce bubenicek
EXTD=
EXTT0=
EXTT1=
EXTT2=
EXTT3=
EXTT4=
EXTT5=
EXTT6=
EXTT7=
EXTT8=
EXTT9=
EXTT10=
EXTT11=
EXTT12=
EXTT13=
EXTT14=
EXTT15=
EXTT16=
EXTT17=
EXTT18=
EXTT19=
EXTT20=
EXTT21=
EXTT22=
EXTT23=
EXTT24=
EXTT25=
EXTT26=
EXTT27=
EXTT28=
EXTT29=
PLAYORDER=
